<?xml version="1.0" encoding="iso-8859-1"?>
<!-- Uploaded to: SVG Repo, www.svgrepo.com, Generator: SVG Repo Mixer Tools -->
<!DOCTYPE svg PUBLIC "-//W3C//DTD SVG 1.1//EN" "http://www.w3.org/Graphics/SVG/1.1/DTD/svg11.dtd">
<svg fill="#000000" height="800px" width="800px" version="1.1" id="Capa_1" xmlns="http://www.w3.org/2000/svg" xmlns:xlink="http://www.w3.org/1999/xlink" 
	 viewBox="0 0 392.619 392.619" xml:space="preserve">
<g>
	<path d="M310.724,0.929H81.896C36.738,0.929,0,37.667,0,82.825v226.97c0,45.158,36.738,81.896,81.896,81.896h228.828
		c45.157,0,81.896-36.738,81.896-81.896V82.825C392.619,37.667,355.881,0.929,310.724,0.929z M362.619,309.794
		c0,28.616-23.28,51.896-51.896,51.896H81.896C53.28,361.69,30,338.41,30,309.794V82.825c0-28.616,23.28-51.896,51.896-51.896
		h228.828c28.615,0,51.896,23.28,51.896,51.896V309.794z"/>
	<path d="M253.682,90.617h-87.888c-1.041-0.059-2.088-0.097-3.143-0.097c-30.169,0-54.713,24.544-54.713,54.713
		s24.544,54.713,54.713,54.713c8.89,0,17.283-2.145,24.712-5.923v86.656c0,8.284,6.716,15,15,15s15-6.716,15-15V145.233
		c0-8.852-2.126-17.211-5.874-24.616h27.192v160.063c0,8.284,6.716,15,15,15s15-6.716,15-15V105.617
		C268.682,97.333,261.966,90.617,253.682,90.617z"/>
</g>
</svg>